<?xml version="1.0" encoding="utf-8"?>
<!-- Generator: Adobe Illustrator 16.0.3, SVG Export Plug-In . SVG Version: 6.00 Build 0)  -->
<!DOCTYPE svg PUBLIC "-//W3C//DTD SVG 1.1//EN" "http://www.w3.org/Graphics/SVG/1.1/DTD/svg11.dtd">
<svg version="1.1"
	 id="svg2995" xmlns:cc="http://creativecommons.org/ns#" xmlns:rdf="http://www.w3.org/1999/02/22-rdf-syntax-ns#" xmlns:svg="http://www.w3.org/2000/svg" xmlns:sodipodi="http://sodipodi.sourceforge.net/DTD/sodipodi-0.dtd" xmlns:inkscape="http://www.inkscape.org/namespaces/inkscape" xmlns:dc="http://purl.org/dc/elements/1.1/" inkscape:export-xdpi="90" inkscape:export-ydpi="90" inkscape:export-filename="G:\SBF\KartGis\Symbolbibliotek\Eskilstunakartan_symbolbibliotek_exempel\FÃƒÆ’Ã‚Â¤rdiga pins okonverterade\sjukhus_II.png" inkscape:version="0.48.4 r9939" sodipodi:docname="brun.svg"
	 xmlns="http://www.w3.org/2000/svg" xmlns:xlink="http://www.w3.org/1999/xlink" x="0px" y="0px" width="1200px" height="1200px"
	 viewBox="0 0 1200 1200" enable-background="new 0 0 1200 1200" xml:space="preserve">
<sodipodi:namedview  id="namedview2997" guidetolerance="10" inkscape:cx="380.44164" inkscape:zoom="0.7925" gridtolerance="10" objecttolerance="10" showguides="true" borderopacity="1" showgrid="false" bordercolor="#666666" pagecolor="#ffffff" inkscape:cy="603.52429" inkscape:window-width="1920" inkscape:current-layer="svg2995" inkscape:window-height="1178" inkscape:guide-bbox="true" inkscape:window-x="1912" inkscape:window-y="-8" inkscape:window-maximized="1" inkscape:pageshadow="2" inkscape:pageopacity="0">
	<sodipodi:guide  position="946.37224,604.4164" orientation="0,1" id="guide2999"></sodipodi:guide>
	<sodipodi:guide  position="600,1046.1864" orientation="1,0" id="guide3001"></sodipodi:guide>
	<sodipodi:guide  position="797.47634,932.49211" orientation="1,0" id="guide2987"></sodipodi:guide>
	<sodipodi:guide  position="400,979.17981" orientation="1,0" id="guide2989"></sodipodi:guide>
	<sodipodi:guide  position="874.44795,826.49842" orientation="0,1" id="guide2991"></sodipodi:guide>
	<sodipodi:guide  position="320.50473,384.85804" orientation="0,1" id="guide2993"></sodipodi:guide>
	<sodipodi:guide  position="1125,1163.1356" orientation="0,1" id="guide2995"></sodipodi:guide>
	<sodipodi:guide  position="336.90852,962.77603" orientation="1,0" id="guide2992"></sodipodi:guide>
	<sodipodi:guide  position="860.56782,864.35331" orientation="1,0" id="guide2994"></sodipodi:guide>
	<sodipodi:guide  position="-445.42587,865.61514" orientation="0,1" id="guide2996"></sodipodi:guide>
	<sodipodi:guide  position="1070.0315,343.21767" orientation="0,1" id="guide2998"></sodipodi:guide>
</sodipodi:namedview>
<path id="path3021" inkscape:connector-curvature="0" fill="#8F6B46" stroke="#151515" stroke-width="27.0582" d="M600.107,1182.583
	c254.152,0,395.434,0,487.717-92.283c92.283-92.282,92.283-233.566,92.283-487.717c0-254.152,0-395.436-92.283-487.718
	S854.26,22.583,600.107,22.583c-254.153,0-395.437,0-487.718,92.282c-92.282,92.282-92.282,233.565-92.282,487.718
	c0,254.15,0,395.435,92.282,487.717C204.67,1182.583,345.957,1182.583,600.107,1182.583z"/>
<path id="path3783" inkscape:connector-curvature="0" fill="#FFFFFF" stroke="#000000" stroke-width="13.6657" stroke-miterlimit="10" d="
	M348.646,1114.352c-2.167-2.471-2.511-824.385-0.34-824.385c0.885,0,1.343-28.99,1.343-84.259c0-51.209,0.494-84.258,1.257-84.258
	c0.689,0,1.692-1.347,2.201-2.98c0.512-1.637,2.636-4.674,4.704-6.743c3.016-3.018,4.965-3.76,9.932-3.76
	c3.388,0,6.167,0.542,6.167,1.195c0,0.647,3.997,1.447,8.893,1.754c6.555,0.421,9.244,1.173,10.174,2.86
	c0.703,1.256,2.419,2.288,3.817,2.288c1.39,0,2.922,1.206,3.387,2.692c0.471,1.489,1.684,2.7,2.693,2.7
	c1.014,0,2.658,0.833,3.683,1.848c1.01,1.019,3.323,2.317,5.145,2.89c1.822,0.579,4.226,2.086,5.345,3.36
	c1.097,1.265,3.374,2.745,5.054,3.269c1.666,0.526,3.034,1.523,3.034,2.226c0,0.69,0.929,1.252,2.064,1.252
	c1.137,0,2.42,0.906,2.839,2.021c0.429,1.113,1.87,2.024,3.18,2.024c1.326,0,2.763,0.912,3.181,2.032
	c0.43,1.112,1.718,2.02,2.854,2.02c1.136,0,2.065,0.563,2.065,1.255c0,0.692,1.334,1.684,2.972,2.205
	c1.632,0.518,3.788,1.766,4.811,2.789c1.014,1.011,2.658,1.844,3.684,1.844c1.002,0,2.219,1.212,2.691,2.701
	c0.469,1.478,2.04,2.69,3.503,2.69c1.452,0,2.976,0.856,3.376,1.907c0.384,1.04,2.192,2.273,3.997,2.725
	c1.802,0.455,3.283,1.415,3.283,2.138c0,0.729,0.908,1.323,2.013,1.323c1.112,0,2.026,0.595,2.026,1.323
	c0,0.729,1.479,1.695,3.281,2.146c1.786,0.455,3.587,1.676,3.998,2.721c0.407,1.039,1.924,1.897,3.369,1.897
	c1.47,0,3.034,1.206,3.505,2.701c0.472,1.485,1.695,2.699,2.696,2.699c0.997,0,2.663,0.822,3.677,1.848
	c1.012,1.013,3.179,2.271,4.811,2.787c1.638,0.522,2.967,1.444,2.967,2.058c0,0.616,1.522,1.489,3.372,1.954
	c1.85,0.467,3.368,1.445,3.368,2.165c0,0.728,0.836,1.322,1.876,1.322c1.03,0,2.22,0.912,2.647,2.024
	c0.425,1.113,1.714,2.028,2.851,2.028c1.132,0,2.064,0.563,2.064,1.252c0,0.692,1.366,1.688,3.034,2.22
	c1.659,0.522,3.939,2.002,5.054,3.269c1.114,1.278,3.387,2.745,5.053,3.272c1.684,0.527,3.045,1.525,3.045,2.22
	c0,0.691,0.932,1.259,2.068,1.259c1.137,0,2.402,0.91,2.84,2.024c0.425,1.11,1.862,2.022,3.181,2.022
	c1.324,0,2.754,0.907,3.181,2.026c0.425,1.117,1.704,2.024,2.84,2.024c1.137,0,2.064,0.612,2.064,1.35
	c0,0.736,0.87,1.353,1.935,1.353c1.049,0,2.761,0.822,3.772,1.843c1.023,1.012,3.178,2.273,4.811,2.789
	c1.646,0.521,2.976,1.513,2.976,2.204c0,0.69,0.903,1.252,2.022,1.252c1.11,0,2.021,0.596,2.021,1.326
	c0,0.72,1.518,1.699,3.37,2.166c1.854,0.467,3.37,1.41,3.37,2.093c0,0.688,1.052,1.634,2.357,2.117
	c1.304,0.482,3.272,1.894,4.384,3.13c1.105,1.25,3.383,2.694,5.056,3.221c1.659,0.523,3.031,1.461,3.031,2.068
	c0,0.607,1.519,1.488,3.368,1.949c1.853,0.467,3.37,1.441,3.37,2.169c0,0.727,0.933,1.318,2.069,1.318s2.404,0.907,2.839,2.027
	c0.427,1.112,1.854,2.021,3.181,2.021c1.325,0,2.752,0.91,3.18,2.026c0.427,1.114,1.699,2.026,2.836,2.026s2.063,0.563,2.063,1.257
	c0,0.692,1.371,1.693,3.044,2.213c1.667,0.525,4.003,2.086,5.215,3.465c1.201,1.375,2.879,2.505,3.75,2.505
	c0.878,0,1.921,0.91,2.346,2.03c0.428,1.11,1.944,2.02,3.369,2.02c1.422,0,2.942,0.909,3.367,2.028
	c0.429,1.108,1.616,2.022,2.64,2.022c1.035,0,1.889,0.57,1.889,1.261c0,0.692,1.33,1.675,2.969,2.205
	c1.646,0.521,3.796,1.769,4.818,2.79c1.013,1.01,2.636,1.844,3.616,1.844c0.992,0,2.141,0.91,2.567,2.028
	c0.425,1.112,1.958,2.031,3.426,2.031c1.469,0,3.029,1.202,3.502,2.689c0.469,1.486,1.68,2.698,2.698,2.698
	c1.002,0,2.652,0.832,3.67,1.846c1.016,1.021,3.186,2.273,4.814,2.79c1.636,0.522,2.979,1.511,2.979,2.202
	c0,0.696,0.899,1.259,2.023,1.259c1.112,0,2.02,0.594,2.02,1.324c0,0.725,1.506,1.708,3.362,2.168
	c1.851,0.465,3.368,1.385,3.368,2.051c0,0.658,0.927,1.199,2.063,1.199c1.136,0,2.416,0.907,2.853,2.029
	c0.418,1.112,1.852,2.019,3.171,2.019c1.323,0,2.76,0.91,3.184,2.029c0.426,1.105,1.722,2.019,2.852,2.019
	c1.136,0,2.068,0.57,2.068,1.261c0,0.693,1.335,1.677,2.969,2.207c1.636,0.513,3.788,1.763,4.811,2.787
	c1.015,1.012,2.672,1.844,3.683,1.844c1.003,0,2.221,1.21,2.69,2.705c0.472,1.479,2.041,2.691,3.508,2.691
	c1.45,0,2.974,0.856,3.37,1.902c0.404,1.041,2.191,2.273,3.997,2.72c1.796,0.451,3.28,1.415,3.28,2.144
	c0,0.719,0.907,1.321,2.013,1.321c1.11,0,2.026,0.563,2.026,1.257c0,0.692,1.332,1.679,2.973,2.197
	c1.633,0.521,3.798,1.773,4.81,2.79c1.023,1.009,2.676,1.846,3.675,1.846c1.021,0,2.209,1.153,2.652,2.562
	c0.449,1.408,2.313,2.936,4.134,3.395c1.829,0.46,3.324,1.43,3.324,2.159c0,0.723,0.85,1.317,1.923,1.317
	c1.072,0,2.755,0.832,3.778,1.846c1.015,1.019,3.174,2.273,4.816,2.797c1.637,0.515,2.97,1.507,2.97,2.194
	c0,0.695,0.836,1.264,1.883,1.264c1.026,0,2.222,0.908,2.638,2.029c0.428,1.105,2.009,2.015,3.531,2.015
	c1.487,0,2.734,0.627,2.734,1.388c0,0.772,1.052,1.782,2.354,2.265c1.299,0.48,3.275,1.899,4.385,3.135
	c1.109,1.253,3.382,2.694,5.059,3.215c1.678,0.522,3.045,1.523,3.045,2.217c0,0.69,0.929,1.252,2.065,1.252
	c1.132,0,2.399,0.91,2.84,2.029c0.422,1.114,1.944,2.031,3.367,2.031s2.942,0.907,3.373,2.019c0.41,1.114,1.615,2.026,2.632,2.026
	c1.034,0,1.878,0.563,1.878,1.257s1.337,1.686,2.971,2.204c1.651,0.518,3.803,1.772,4.816,2.787
	c1.022,1.012,2.712,1.851,3.777,1.851c1.066,0,1.931,0.605,1.931,1.35c0,0.738,0.905,1.351,2.025,1.351
	c1.104,0,2.021,0.596,2.021,1.323c0,0.729,1.48,1.692,3.276,2.144c1.803,0.452,3.601,1.671,4.008,2.716
	c0.401,1.039,1.915,1.897,3.368,1.897c1.471,0,3.028,1.212,3.503,2.708c0.47,1.479,1.678,2.694,2.701,2.694
	c0.998,0,2.65,0.831,3.668,1.85c1.012,1.007,3.184,2.271,4.815,2.788c1.632,0.521,2.972,1.512,2.972,2.201
	c0,0.694,0.815,1.255,1.839,1.255c1,0,2.977,1.517,4.361,3.37c1.388,1.852,3.368,3.37,4.396,3.37c1.499,0,1.677,1.993,0.896,10.445
	c-0.523,5.745-1.521,10.65-2.166,10.899c-0.675,0.245-1.227,1.359-1.227,2.467c0,1.108-1.823,3.835-4.036,6.054
	c-2.224,2.231-4.038,4.567-4.038,5.201c0,0.633-1.368,1.585-3.027,2.11c-1.683,0.532-5.778,3.827-9.102,7.31
	c-3.344,3.5-7.412,6.777-9.037,7.289c-1.635,0.518-3.316,2.091-3.771,3.494c-0.447,1.41-1.948,2.913-3.321,3.354
	c-1.377,0.439-2.843,1.676-3.265,2.764c-0.416,1.09-1.446,1.973-2.281,1.973c-0.819,0-4.498,3.034-8.112,6.742
	c-3.631,3.708-7.21,6.741-7.938,6.741c-0.724,0-4,2.736-7.229,6.063c-3.243,3.339-6.737,6.104-7.772,6.133
	c-1.027,0.03-3.082,1.576-4.57,3.429c-5.46,6.833-8.673,9.982-10.163,9.982c-0.842,0-4.792,3.332-8.766,7.411
	c-4.001,4.078-7.613,7.416-8.045,7.416c-1.002,0-3.689,2.235-9.29,7.756c-2.447,2.412-4.902,4.377-5.427,4.377
	c-0.528,0-3.979,3.034-7.643,6.742c-3.677,3.702-7.249,6.742-7.964,6.742c-0.708,0-4.293,3.034-7.96,6.743
	c-3.663,3.701-7.108,6.742-7.649,6.742c-0.531,0-2.978,1.965-5.421,4.381c-5.558,5.456-8.306,7.75-9.266,7.75
	c-0.411,0-3.766,3.034-7.444,6.737c-3.689,3.709-7.343,6.749-8.117,6.749c-0.773,0-1.742,0.893-2.166,1.965
	c-0.413,1.086-1.886,2.326-3.271,2.766c-1.376,0.433-2.856,1.945-3.31,3.357c-0.446,1.399-2.144,2.977-3.78,3.487
	c-1.629,0.518-5.825,3.877-9.313,7.479c-3.511,3.608-6.954,6.555-7.66,6.555c-1.598,0-9.581,7.873-9.581,9.45
	c0,0.637-1.175,1.525-2.606,1.982c-1.461,0.461-2.988,2.57-3.479,4.801c-0.48,2.187-1.359,3.982-1.948,3.982
	c-1.893,0-2.476,6.823-0.729,8.572c0.917,0.913,2.084,2.979,2.589,4.572c0.521,1.596,2.075,3.27,3.49,3.715
	c1.41,0.451,2.98,2.123,3.483,3.726c0.51,1.601,2.65,4.65,4.788,6.778c2.134,2.123,3.865,4.683,3.865,5.688
	c0,1.001,1.186,2.201,2.628,2.658c1.44,0.454,2.993,2.023,3.463,3.462c0.453,1.447,1.397,2.633,2.089,2.633
	c0.697,0,1.267,0.691,1.267,1.537c0,0.843,1.819,3.276,4.037,5.402c2.215,2.127,4.035,4.479,4.035,5.224
	c0,0.746,2.133,3.424,4.712,5.941c2.6,2.517,4.708,5.116,4.708,5.764c0,0.654,1.793,2.675,3.996,4.5
	c2.189,1.824,4.006,4.283,4.044,5.462c0.034,1.188,1.873,3.555,4.103,5.263c2.212,1.703,4.035,3.938,4.035,4.982
	c0,1.992,6.333,8.496,8.293,8.496c0.625,0,1.152,1.09,1.152,2.417c0,1.333,1.79,3.911,3.993,5.733
	c2.19,1.824,4.008,4.056,4.043,4.982c0.034,0.923,1.872,3.414,4.103,5.535c2.212,2.133,4.032,4.563,4.032,5.41
	c0,0.847,0.576,1.544,1.264,1.544c0.685,0,1.633,1.177,2.09,2.621c0.461,1.446,2.015,3,3.461,3.462
	c1.453,0.452,2.633,1.66,2.633,2.663c0,1,1.823,3.646,4.033,5.873c2.227,2.219,4.041,4.436,4.041,4.92
	c0,0.48,1.817,2.703,4.043,4.92c2.213,2.232,4.032,4.691,4.032,5.468s2.137,3.422,4.716,5.867c2.598,2.448,4.724,5.049,4.724,5.79
	c0,0.733,1.804,3.156,4.027,5.368c2.229,2.232,4.048,4.45,4.048,4.925c0,0.493,1.821,2.71,4.037,4.927
	c2.22,2.231,4.034,4.646,4.034,5.384c0,0.733,2.132,3.331,4.722,5.781c2.587,2.453,4.699,5.086,4.699,5.876
	c0,0.782,1.821,3.241,4.046,5.46c2.225,2.229,4.04,4.371,4.04,4.787c0,0.399,1.822,2.587,4.034,4.864
	c2.224,2.277,4.045,4.984,4.045,6.018c0,1.041,1.182,2.263,2.626,2.723c1.453,0.456,3.003,2.016,3.465,3.461
	c0.457,1.449,1.396,2.628,2.093,2.628c0.689,0,1.253,0.694,1.253,1.532c0,0.848,1.816,3.285,4.038,5.406
	c2.227,2.13,4.071,4.616,4.108,5.544c0.031,0.909,1.849,3.163,4.037,4.978c2.178,1.824,3.985,4.399,3.985,5.733
	c0,1.337,0.523,2.421,1.152,2.421c1.944,0,8.29,6.499,8.29,8.495c0,1.024,1.822,3.275,4.046,4.982
	c2.228,1.698,4.036,3.64,4.036,4.303c0,1.338,2.153,4.178,5.733,7.551c1.293,1.224,2.357,2.751,2.357,3.389
	c0,0.632,2.126,3.221,4.716,5.736c2.588,2.521,4.704,5.195,4.704,5.944c0,0.759,1.825,3.104,4.041,5.227
	c2.229,2.132,4.049,4.334,4.049,4.914c0,0.573,2.121,3.043,4.697,5.491c2.61,2.447,4.722,5.049,4.722,5.783
	c0,0.731,1.731,3.082,3.858,5.196c2.128,2.125,4.276,5.173,4.789,6.779c0.518,1.605,2.076,3.275,3.483,3.729
	c1.405,0.449,2.977,2.142,3.49,3.772c0.516,1.631,2.971,4.897,5.455,7.26c2.498,2.355,4.529,4.89,4.529,5.626
	c0,0.739,1.823,3.155,4.046,5.373c2.216,2.229,4.033,4.449,4.033,4.932s1.823,2.704,4.042,4.92c2.228,2.225,4.042,4.69,4.042,5.463
	c0,0.785,2.129,3.422,4.707,5.873c5.477,5.172,5.836,6.789,1.767,8.081c-1.624,0.519-4.803,2.898-7.074,5.298
	c-2.272,2.403-5.468,4.78-7.095,5.288c-1.628,0.516-3.334,2.116-3.795,3.559c-0.448,1.445-1.606,2.63-2.563,2.63
	c-0.946,0-3.118,1.212-4.833,2.694c-1.714,1.488-3.646,2.706-4.312,2.706c-0.667,0-2.618,1.513-4.334,3.369
	c-1.708,1.853-3.545,3.37-4.077,3.37c-0.531,0-2.788,1.823-5.002,4.039c-2.222,2.226-4.762,4.04-5.642,4.04
	c-0.882,0-2.737,1.517-4.127,3.371c-1.394,1.85-3.088,3.366-3.754,3.366c-1.151,0-2.747,1.142-7.123,5.064
	c-1.03,0.922-2.197,1.678-2.607,1.678c-0.399,0-2.591,1.821-4.869,4.046c-2.273,2.22-4.743,4.04-5.505,4.04
	c-0.756,0-2.77,1.517-4.479,3.37c-1.721,1.853-3.592,3.368-4.166,3.368c-0.578,0-2.391,1.444-4.013,3.211
	c-1.643,1.77-4.281,3.629-5.878,4.13c-1.604,0.506-2.904,1.48-2.904,2.175s-0.91,1.262-2.022,1.262
	c-1.116,0-2.021-0.654-2.021-1.454c0-0.808-1.67-3.204-3.709-5.359c-5.397-5.676-7.069-7.774-7.143-8.979
	c-0.039-0.595-1.852-2.559-4.038-4.373c-2.183-1.822-3.993-4.397-3.993-5.735c0-1.331-0.566-2.42-1.246-2.42
	c-1.62,0-9.54-7.924-9.54-9.539c0-0.685-2.42-3.67-5.393-6.636c-2.963-2.968-5.389-6.027-5.389-6.796
	c0-1.599-6.56-8.023-8.189-8.023c-0.579,0-1.482-1.367-2.011-3.038c-0.528-1.664-2.99-4.957-5.488-7.322
	c-2.489-2.354-4.52-4.891-4.52-5.62c0-1.688-7.885-9.633-9.539-9.633c-0.688,0-1.244-1-1.244-2.228c0-1.227-2.137-4.291-4.719-6.805
	c-2.585-2.518-4.708-5.161-4.708-5.868c0-0.71-2.424-3.708-5.386-6.671c-2.97-2.978-5.396-6.304-5.396-7.413
	c0-1.115-0.557-2.032-1.242-2.032c-1.674,0-9.542-7.942-9.542-9.629c0-0.734-2.122-3.34-4.703-5.788
	c-2.609-2.445-4.716-5.088-4.716-5.863c0-0.789-2.425-3.875-5.39-6.866c-2.966-2.995-5.378-5.896-5.378-6.432
	c0-0.542-2.424-3.253-5.393-6.018c-2.974-2.769-5.383-5.596-5.383-6.298c0-0.691-2.134-3.521-4.717-6.269
	c-2.58-2.749-4.71-5.825-4.71-6.833c0-1.015-1.188-2.215-2.626-2.669c-1.448-0.456-2.993-2.017-3.463-3.457
	c-0.457-1.457-1.403-2.634-2.095-2.634c-0.696,0-1.259-0.699-1.259-1.557c0-0.852-2.342-3.734-5.214-6.405
	c-2.855-2.665-5.617-6.182-6.132-7.814c-0.517-1.632-2.076-3.323-3.478-3.772c-1.409-0.442-2.936-1.992-3.391-3.434
	c-0.456-1.458-1.396-2.63-2.09-2.63c-0.701,0-1.255-0.725-1.255-1.607c0-0.888-2.423-3.871-5.393-6.635s-5.381-5.635-5.381-6.376
	c0-0.742-1.822-3.18-4.041-5.393c-2.225-2.227-4.044-4.445-4.044-4.926c0-0.481-1.664-2.633-3.708-4.78
	c-5.076-5.339-7.069-7.784-7.069-8.65c0-0.4-2.342-3.005-5.2-5.783c-2.855-2.779-5.612-6.392-6.127-8.021
	c-0.521-1.631-2.099-3.335-3.496-3.775c-1.408-0.446-2.938-1.992-3.392-3.443c-0.464-1.443-1.396-2.628-2.092-2.628
	c-0.696,0-1.255-0.69-1.255-1.544c0-0.848-1.825-3.274-4.046-5.402c-2.229-2.129-4.039-4.5-4.039-5.265
	c0-1.584-6.56-8.019-8.188-8.019c-0.581,0-1.484-1.34-2-2.979c-0.521-1.65-2.535-4.659-4.476-6.706
	c-4.917-5.17-6.896-7.608-6.896-8.46c0-0.41-2.42-3.165-5.381-6.121c-2.963-2.973-5.39-5.743-5.39-6.177
	c0-0.425-1.668-2.525-3.708-4.674c-5.325-5.589-7.082-7.786-7.082-8.836c0-0.505-1.815-2.659-4.034-4.79
	c-2.22-2.125-4.036-4.495-4.036-5.266c0-1.584-6.572-8.013-8.196-8.013c-0.587,0-1.49-1.346-2.003-2.984
	c-0.518-1.632-3.29-5.301-6.156-8.132c-2.861-2.84-5.216-5.743-5.216-6.461c0-0.713-2.417-3.718-5.381-6.689
	c-2.963-2.97-5.39-5.74-5.39-6.171c0-0.436-1.824-2.596-4.032-4.818c-2.229-2.225-4.042-4.908-4.042-5.961
	c0-1.339-1.628-1.917-5.394-1.917h-5.376V914.26v202.216l-68.421-0.049C361.389,1116.275,350.061,1115.96,348.646,1114.352
	L348.646,1114.352z M500.037,599.158c1.806-1.953,3.307-4.037,3.307-4.622c0-0.581,1.342-1.481,2.981-2.004
	c1.634-0.52,7.132-5.104,12.213-10.2c5.088-5.091,9.811-9.262,10.501-9.262c0.7,0,5.765-4.551,11.252-10.109
	c5.489-5.556,10.511-10.107,11.149-10.107c0.647,0,2.203-1.061,3.437-2.355c1.25-1.297,2.965-3.052,3.834-3.888
	c0.861-0.838,3.312-3.27,5.411-5.385c4.812-4.84,7.654-7.244,8.578-7.244c0.4,0,4.901-4.235,9.997-9.436
	c5.094-5.193,10.105-9.464,11.115-9.496c1.034-0.04,3.085-1.608,4.56-3.498c1.49-1.888,3.486-4.13,4.433-4.994
	c6.39-5.756,9.722-9.346,9.722-10.423c0-0.687,0.922-1.25,2.053-1.25c1.121,0,6.313-4.239,11.532-9.439
	c5.214-5.193,10.027-9.439,10.7-9.439c2.473,0,12.004-10.884,11.246-12.856c-0.42-1.09-1.241-1.975-1.813-1.975
	c-0.581,0-1.478-1.631-1.965-3.63c-0.985-3.901-5.453-8.506-8.261-8.506c-0.948,0-2.111-1.209-2.586-2.695
	c-0.472-1.484-2.043-2.698-3.515-2.698c-1.454,0-2.976-0.854-3.366-1.897c-0.41-1.041-2.208-2.272-4.01-2.722
	c-1.789-0.454-3.271-1.413-3.271-2.14c0-0.727-0.909-1.326-2.025-1.326c-1.11,0-2.023-0.596-2.023-1.323
	c0-0.728-1.474-1.693-3.278-2.143c-1.796-0.456-3.597-1.681-4.003-2.722c-0.398-1.045-1.931-1.897-3.367-1.897
	c-1.473,0-3.041-1.19-3.501-2.652c-0.525-1.661-2.529-2.969-5.376-3.498c-2.507-0.468-4.889-1.708-5.273-2.745
	c-0.403-1.041-1.662-1.893-2.799-1.893c-1.125,0-2.063-0.561-2.063-1.255c0-0.696-1.366-1.688-3.039-2.223
	c-1.666-0.52-3.936-1.97-5.053-3.213c-1.115-1.239-3.083-2.649-4.386-3.132c-1.294-0.482-2.355-1.501-2.355-2.267
	c0-0.77-1.247-1.383-2.738-1.383c-1.506,0-3.089-0.91-3.533-2.03c-0.413-1.113-1.617-2.022-2.638-2.022
	c-1.034,0-1.877-0.612-1.877-1.351c0-0.735-1.241-1.352-2.738-1.352c-1.504,0-3.075-0.856-3.473-1.897
	c-0.396-1.043-2.197-2.274-3.995-2.721c-1.801-0.453-3.276-1.417-3.276-2.146c0-0.728-0.903-1.322-2.022-1.322
	c-1.106,0-2.02-0.594-2.02-1.321c0-0.721-1.473-1.695-3.277-2.146c-1.799-0.443-3.601-1.67-4.003-2.716
	c-0.405-1.05-1.895-1.906-3.314-1.906c-1.428,0-2.941-0.91-3.37-2.022c-0.423-1.107-1.565-2.022-2.538-2.022
	c-0.976,0-2.628-1.194-3.674-2.649c-1.052-1.454-3.608-3.016-5.694-3.467c-2.077-0.456-3.776-1.353-3.776-1.984
	c0-0.632-1.37-1.579-3.034-2.107c-1.67-0.521-4.095-2.174-5.374-3.66c-1.563-1.792-4.637-2.918-9.101-3.35l-6.746-0.647v120.214
	c0,94.248,0.364,120.624,1.694,122.12C492.792,603.66,496.398,603.093,500.037,599.158L500.037,599.158z"/>
</svg>
