<?xml version="1.0" encoding="utf-8"?>
<!-- Generator: Adobe Illustrator 16.0.3, SVG Export Plug-In . SVG Version: 6.00 Build 0)  -->
<!DOCTYPE svg PUBLIC "-//W3C//DTD SVG 1.0//EN" "http://www.w3.org/TR/2001/REC-SVG-20010904/DTD/svg10.dtd">
<svg version="1.0"
	 id="svg2995" xmlns:cc="http://creativecommons.org/ns#" xmlns:rdf="http://www.w3.org/1999/02/22-rdf-syntax-ns#" xmlns:svg="http://www.w3.org/2000/svg" xmlns:sodipodi="http://sodipodi.sourceforge.net/DTD/sodipodi-0.dtd" xmlns:inkscape="http://www.inkscape.org/namespaces/inkscape" xmlns:dc="http://purl.org/dc/elements/1.1/" inkscape:version="0.48.4 r9939" inkscape:export-ydpi="90" inkscape:export-xdpi="90" sodipodi:docname="brun.svg" inkscape:export-filename="G:\SBF\KartGis\Symbolbibliotek\Eskilstunakartan_symbolbibliotek_exempel\FÃƒÂ¤rdiga pins okonverterade\sjukhus_II.png"
	 xmlns="http://www.w3.org/2000/svg" xmlns:xlink="http://www.w3.org/1999/xlink" x="0px" y="0px" width="1200px" height="1200px"
	 viewBox="0 0 1200 1200" enable-background="new 0 0 1200 1200" xml:space="preserve">
<sodipodi:namedview  inkscape:cy="603.52429" pagecolor="#ffffff" bordercolor="#666666" showgrid="false" borderopacity="1" showguides="true" objecttolerance="10" gridtolerance="10" inkscape:zoom="0.7925" inkscape:cx="380.44164" guidetolerance="10" id="namedview2997" inkscape:pageopacity="0" inkscape:pageshadow="2" inkscape:window-maximized="1" inkscape:window-y="-8" inkscape:window-x="1912" inkscape:guide-bbox="true" inkscape:window-height="1178" inkscape:current-layer="svg2995" inkscape:window-width="1920">
	<sodipodi:guide  orientation="0,1" position="946.37224,604.4164" id="guide2999"></sodipodi:guide>
	<sodipodi:guide  orientation="1,0" position="600,1046.1864" id="guide3001"></sodipodi:guide>
	<sodipodi:guide  orientation="1,0" position="797.47634,932.49211" id="guide2987"></sodipodi:guide>
	<sodipodi:guide  orientation="1,0" position="400,979.17981" id="guide2989"></sodipodi:guide>
	<sodipodi:guide  orientation="0,1" position="874.44795,826.49842" id="guide2991"></sodipodi:guide>
	<sodipodi:guide  orientation="0,1" position="320.50473,384.85804" id="guide2993"></sodipodi:guide>
	<sodipodi:guide  orientation="0,1" position="1125,1163.1356" id="guide2995"></sodipodi:guide>
	<sodipodi:guide  orientation="1,0" position="336.90852,962.77603" id="guide2992"></sodipodi:guide>
	<sodipodi:guide  orientation="1,0" position="860.56782,864.35331" id="guide2994"></sodipodi:guide>
	<sodipodi:guide  orientation="0,1" position="-445.42587,865.61514" id="guide2996"></sodipodi:guide>
	<sodipodi:guide  orientation="0,1" position="1070.0315,343.21767" id="guide2998"></sodipodi:guide>
</sodipodi:namedview>
<path id="path3021" inkscape:connector-curvature="0" fill="#8F6B46" stroke="#151515" stroke-width="11.88" d="M600.107,850.234
	c111.587,0,173.618,0,214.134-40.517c40.518-40.517,40.518-102.548,40.518-214.134c0-111.587,0-173.618-40.518-214.135
	c-40.516-40.517-102.547-40.517-214.134-40.517c-111.586,0-173.618,0-214.134,40.517c-40.517,40.517-40.517,102.548-40.517,214.135
	c0,111.586,0,173.617,40.517,214.134C426.489,850.234,488.521,850.234,600.107,850.234z"/>
<path id="path3783" inkscape:connector-curvature="0" fill="#FFFFFF" stroke="#000000" stroke-width="6" stroke-miterlimit="10" d="
	M489.702,820.277c-0.951-1.085-1.102-361.95-0.149-361.95c0.388,0,0.59-12.728,0.59-36.994c0-22.484,0.216-36.994,0.551-36.994
	c0.303,0,0.744-0.591,0.967-1.309c0.225-0.718,1.157-2.052,2.066-2.96c1.324-1.325,2.179-1.651,4.36-1.651
	c1.487,0,2.708,0.238,2.708,0.525c0,0.284,1.755,0.635,3.904,0.77c2.878,0.185,4.059,0.515,4.467,1.256
	c0.309,0.551,1.062,1.004,1.676,1.004c0.61,0,1.283,0.53,1.487,1.182c0.207,0.654,0.739,1.186,1.183,1.186
	c0.445,0,1.167,0.365,1.617,0.811c0.443,0.447,1.459,1.017,2.259,1.269c0.8,0.254,1.855,0.916,2.346,1.475
	c0.482,0.555,1.482,1.205,2.219,1.435c0.732,0.231,1.332,0.669,1.332,0.977c0,0.303,0.408,0.55,0.906,0.55
	c0.499,0,1.063,0.398,1.247,0.887c0.188,0.489,0.821,0.889,1.396,0.889c0.582,0,1.213,0.4,1.397,0.892
	c0.188,0.488,0.753,0.887,1.252,0.887s0.908,0.247,0.908,0.551s0.586,0.739,1.304,0.968c0.717,0.227,1.663,0.775,2.113,1.224
	c0.445,0.444,1.167,0.81,1.617,0.81c0.44,0,0.974,0.532,1.181,1.186c0.207,0.649,0.896,1.181,1.539,1.181
	c0.637,0,1.306,0.376,1.482,0.837c0.169,0.457,0.963,0.998,1.755,1.196c0.791,0.2,1.441,0.621,1.441,0.939
	c0,0.32,0.399,0.581,0.884,0.581c0.488,0,0.89,0.261,0.89,0.581s0.649,0.744,1.44,0.942c0.784,0.2,1.575,0.736,1.755,1.195
	c0.179,0.456,0.845,0.833,1.48,0.833c0.645,0,1.332,0.53,1.539,1.186c0.207,0.652,0.744,1.185,1.183,1.185
	c0.438,0,1.169,0.361,1.614,0.811c0.445,0.445,1.396,0.997,2.113,1.224c0.718,0.229,1.303,0.634,1.303,0.903
	c0,0.271,0.667,0.654,1.48,0.858c0.813,0.205,1.479,0.634,1.479,0.95c0,0.32,0.367,0.581,0.824,0.581c0.452,0,0.974,0.4,1.162,0.889
	c0.186,0.488,0.753,0.89,1.252,0.89c0.497,0,0.906,0.247,0.906,0.55c0,0.304,0.6,0.741,1.332,0.975
	c0.729,0.229,1.73,0.879,2.219,1.435c0.489,0.561,1.487,1.205,2.219,1.436c0.739,0.232,1.337,0.67,1.337,0.975
	c0,0.304,0.409,0.553,0.908,0.553s1.054,0.399,1.247,0.888c0.186,0.488,0.817,0.888,1.396,0.888c0.581,0,1.209,0.399,1.397,0.89
	c0.186,0.49,0.748,0.888,1.247,0.888s0.906,0.269,0.906,0.593s0.382,0.594,0.85,0.594c0.461,0,1.212,0.361,1.656,0.81
	c0.449,0.444,1.395,0.998,2.112,1.224c0.723,0.229,1.307,0.664,1.307,0.968c0,0.303,0.396,0.55,0.888,0.55
	c0.487,0,0.887,0.262,0.887,0.582c0,0.316,0.666,0.746,1.48,0.951c0.813,0.205,1.479,0.619,1.479,0.919
	c0,0.302,0.462,0.718,1.035,0.93s1.437,0.831,1.925,1.374c0.486,0.549,1.486,1.182,2.22,1.414c0.729,0.229,1.331,0.641,1.331,0.908
	c0,0.267,0.667,0.653,1.479,0.855c0.813,0.205,1.479,0.633,1.479,0.953c0,0.319,0.409,0.579,0.908,0.579s1.056,0.398,1.246,0.889
	c0.188,0.489,0.815,0.888,1.397,0.888s1.209,0.399,1.396,0.89c0.188,0.489,0.747,0.889,1.246,0.889s0.906,0.247,0.906,0.552
	c0,0.304,0.601,0.743,1.336,0.972c0.732,0.23,1.758,0.916,2.29,1.521c0.527,0.604,1.263,1.1,1.646,1.1
	c0.385,0,0.844,0.399,1.03,0.891c0.188,0.488,0.854,0.887,1.479,0.887s1.292,0.4,1.479,0.891c0.188,0.486,0.71,0.888,1.159,0.888
	c0.454,0,0.829,0.249,0.829,0.553s0.584,0.736,1.304,0.968c0.722,0.229,1.666,0.776,2.115,1.225
	c0.444,0.443,1.157,0.809,1.588,0.809c0.435,0,0.939,0.4,1.127,0.891c0.186,0.488,0.859,0.891,1.504,0.891
	c0.644,0,1.33,0.528,1.537,1.181c0.206,0.652,0.738,1.185,1.185,1.185c0.44,0,1.164,0.365,1.612,0.81
	c0.445,0.448,1.398,0.998,2.113,1.225c0.718,0.229,1.307,0.664,1.307,0.967c0,0.305,0.396,0.552,0.889,0.552
	c0.488,0,0.887,0.261,0.887,0.581c0,0.319,0.661,0.75,1.476,0.952c0.813,0.205,1.479,0.609,1.479,0.901
	c0,0.289,0.407,0.526,0.906,0.526s1.061,0.399,1.252,0.891c0.184,0.488,0.814,0.887,1.393,0.887c0.581,0,1.212,0.399,1.397,0.89
	c0.188,0.486,0.756,0.887,1.252,0.887c0.499,0,0.908,0.25,0.908,0.554s0.586,0.736,1.304,0.968c0.718,0.226,1.663,0.775,2.112,1.224
	c0.446,0.444,1.173,0.81,1.616,0.81c0.441,0,0.976,0.531,1.182,1.187c0.207,0.65,0.896,1.182,1.54,1.182
	c0.637,0,1.306,0.376,1.48,0.835c0.177,0.457,0.962,0.998,1.755,1.194c0.789,0.198,1.44,0.621,1.44,0.941
	c0,0.316,0.398,0.581,0.884,0.581c0.487,0,0.889,0.247,0.889,0.551s0.585,0.738,1.305,0.965c0.718,0.229,1.668,0.778,2.112,1.225
	c0.45,0.443,1.175,0.81,1.614,0.81c0.448,0,0.969,0.506,1.164,1.125c0.197,0.618,1.015,1.289,1.815,1.491
	c0.803,0.202,1.459,0.628,1.459,0.948c0,0.317,0.374,0.578,0.845,0.578s1.21,0.365,1.659,0.811c0.445,0.447,1.394,0.998,2.114,1.227
	c0.719,0.227,1.304,0.662,1.304,0.964c0,0.305,0.367,0.555,0.827,0.555c0.45,0,0.976,0.398,1.158,0.89
	c0.188,0.486,0.882,0.885,1.55,0.885c0.654,0,1.201,0.275,1.201,0.609c0,0.339,0.461,0.783,1.034,0.995
	c0.57,0.21,1.438,0.833,1.924,1.376c0.488,0.55,1.486,1.183,2.222,1.412s1.337,0.668,1.337,0.973c0,0.303,0.407,0.55,0.906,0.55
	c0.497,0,1.054,0.399,1.247,0.891c0.186,0.489,0.854,0.891,1.479,0.891s1.292,0.399,1.48,0.887c0.181,0.489,0.71,0.89,1.157,0.89
	c0.454,0,0.824,0.247,0.824,0.551c0,0.305,0.587,0.741,1.304,0.968c0.725,0.228,1.669,0.778,2.115,1.224
	c0.449,0.444,1.19,0.812,1.658,0.812c0.469,0,0.848,0.266,0.848,0.593c0,0.324,0.397,0.593,0.889,0.593
	c0.485,0,0.888,0.262,0.888,0.581c0,0.32,0.649,0.743,1.438,0.941c0.791,0.199,1.581,0.734,1.759,1.193
	c0.177,0.456,0.842,0.833,1.48,0.833c0.645,0,1.329,0.532,1.538,1.188c0.206,0.65,0.736,1.183,1.185,1.183
	c0.439,0,1.164,0.365,1.611,0.812c0.444,0.443,1.397,0.997,2.115,1.224c0.716,0.229,1.304,0.664,1.304,0.967
	c0,0.304,0.358,0.551,0.807,0.551c0.44,0,1.307,0.666,1.915,1.479c0.61,0.813,1.479,1.479,1.93,1.479
	c0.659,0,0.736,0.875,0.394,4.586c-0.23,2.523-0.667,4.676-0.952,4.786c-0.295,0.107-0.538,0.596-0.538,1.083
	c0,0.486-0.8,1.683-1.771,2.658c-0.977,0.979-1.774,2.005-1.774,2.283s-0.6,0.696-1.329,0.927c-0.738,0.233-2.537,1.679-3.996,3.209
	c-1.468,1.537-3.254,2.975-3.968,3.2c-0.717,0.227-1.456,0.918-1.655,1.534c-0.196,0.619-0.855,1.279-1.458,1.473
	c-0.604,0.193-1.248,0.736-1.433,1.214c-0.183,0.478-0.635,0.866-1.002,0.866c-0.36,0-1.975,1.332-3.562,2.96
	c-1.594,1.628-3.165,2.96-3.485,2.96c-0.318,0-1.756,1.201-3.174,2.662c-1.424,1.466-2.958,2.679-3.412,2.692
	c-0.451,0.014-1.354,0.693-2.007,1.506c-2.397,3-3.808,4.383-4.462,4.383c-0.37,0-2.104,1.463-3.849,3.254
	c-1.756,1.79-3.342,3.256-3.532,3.256c-0.44,0-1.62,0.981-4.079,3.405c-1.074,1.058-2.152,1.922-2.383,1.922
	c-0.231,0-1.746,1.332-3.355,2.96c-1.614,1.625-3.183,2.96-3.496,2.96c-0.312,0-1.885,1.332-3.495,2.96
	c-1.609,1.625-3.122,2.96-3.359,2.96c-0.233,0-1.307,0.864-2.38,1.924c-2.44,2.396-3.646,3.403-4.068,3.403
	c-0.181,0-1.653,1.332-3.269,2.958c-1.62,1.628-3.223,2.962-3.563,2.962s-0.766,0.393-0.951,0.864
	c-0.182,0.476-0.828,1.021-1.436,1.214c-0.604,0.19-1.255,0.854-1.454,1.474c-0.195,0.615-0.941,1.307-1.659,1.53
	c-0.715,0.228-2.558,1.704-4.089,3.285c-1.541,1.584-3.053,2.878-3.363,2.878c-0.702,0-4.207,3.457-4.207,4.149
	c0,0.279-0.516,0.67-1.144,0.87c-0.642,0.202-1.313,1.129-1.527,2.109c-0.211,0.96-0.597,1.748-0.856,1.748
	c-0.831,0-1.087,2.996-0.32,3.763c0.402,0.402,0.915,1.308,1.137,2.008c0.228,0.7,0.911,1.436,1.532,1.631
	c0.619,0.198,1.308,0.932,1.529,1.636c0.224,0.703,1.164,2.042,2.103,2.975c0.936,0.933,1.697,2.057,1.697,2.498
	c0,0.44,0.52,0.967,1.153,1.167c0.633,0.2,1.315,0.889,1.521,1.521c0.199,0.635,0.613,1.155,0.917,1.155
	c0.306,0,0.556,0.304,0.556,0.675c0,0.37,0.799,1.438,1.773,2.372c0.972,0.934,1.771,1.967,1.771,2.294s0.937,1.503,2.069,2.608
	c1.141,1.105,2.067,2.247,2.067,2.531c0,0.287,0.787,1.175,1.754,1.975c0.962,0.801,1.76,1.881,1.776,2.399
	c0.015,0.521,0.822,1.56,1.801,2.31c0.972,0.748,1.771,1.73,1.771,2.188c0,0.875,2.782,3.73,3.642,3.73
	c0.274,0,0.506,0.479,0.506,1.061c0,0.586,0.786,1.718,1.753,2.517c0.962,0.801,1.76,1.782,1.775,2.188
	c0.015,0.405,0.822,1.499,1.801,2.431c0.972,0.936,1.77,2.002,1.77,2.375c0,0.372,0.253,0.677,0.555,0.677
	c0.301,0,0.718,0.517,0.918,1.151c0.202,0.635,0.884,1.318,1.52,1.52c0.637,0.198,1.155,0.729,1.155,1.169s0.801,1.602,1.771,2.579
	c0.978,0.975,1.775,1.947,1.775,2.16c0,0.211,0.798,1.187,1.774,2.161c0.972,0.979,1.771,2.059,1.771,2.4
	c0,0.341,0.938,1.503,2.07,2.576c1.141,1.075,2.074,2.217,2.074,2.542c0,0.322,0.792,1.386,1.769,2.358
	c0.978,0.979,1.776,1.953,1.776,2.162c0,0.215,0.801,1.189,1.774,2.163c0.974,0.979,1.771,2.04,1.771,2.363
	c0,0.322,0.936,1.463,2.072,2.539c1.136,1.076,2.064,2.233,2.064,2.579c0,0.344,0.8,1.424,1.776,2.398
	c0.977,0.978,1.774,1.919,1.774,2.101c0,0.176,0.799,1.136,1.771,2.136c0.977,1,1.776,2.188,1.776,2.643
	c0,0.457,0.519,0.993,1.153,1.195c0.638,0.2,1.318,0.885,1.521,1.519c0.2,0.636,0.614,1.154,0.919,1.154
	c0.303,0,0.55,0.304,0.55,0.673c0,0.372,0.798,1.442,1.773,2.374c0.978,0.934,1.788,2.026,1.804,2.433
	c0.014,0.4,0.812,1.389,1.773,2.186c0.956,0.801,1.75,1.931,1.75,2.517c0,0.587,0.229,1.063,0.505,1.063
	c0.854,0,3.64,2.853,3.64,3.729c0,0.451,0.8,1.439,1.776,2.188c0.978,0.746,1.772,1.598,1.772,1.89c0,0.587,0.945,1.833,2.517,3.315
	c0.568,0.537,1.036,1.207,1.036,1.487c0,0.278,0.933,1.414,2.07,2.52s2.065,2.28,2.065,2.609c0,0.333,0.802,1.362,1.775,2.295
	c0.978,0.936,1.777,1.902,1.777,2.157c0,0.252,0.932,1.336,2.063,2.411c1.146,1.075,2.073,2.217,2.073,2.54
	c0,0.321,0.761,1.352,1.694,2.281c0.934,0.933,1.877,2.271,2.103,2.976c0.226,0.705,0.911,1.439,1.529,1.638
	c0.617,0.197,1.307,0.94,1.532,1.656c0.227,0.716,1.305,2.15,2.396,3.188c1.096,1.034,1.988,2.146,1.988,2.47
	s0.801,1.385,1.776,2.359c0.973,0.978,1.771,1.953,1.771,2.165s0.801,1.187,1.775,2.16c0.978,0.977,1.775,2.06,1.775,2.399
	c0,0.344,0.934,1.503,2.066,2.579c2.405,2.27,2.563,2.98,0.775,3.548c-0.712,0.227-2.108,1.272-3.105,2.325
	c-0.998,1.055-2.4,2.099-3.115,2.322c-0.715,0.227-1.464,0.93-1.666,1.563c-0.198,0.634-0.705,1.155-1.125,1.155
	c-0.416,0-1.369,0.531-2.122,1.182c-0.753,0.654-1.602,1.188-1.894,1.188s-1.149,0.665-1.902,1.479
	c-0.75,0.814-1.557,1.48-1.79,1.48c-0.234,0-1.224,0.801-2.196,1.773c-0.976,0.978-2.091,1.775-2.477,1.775
	c-0.388,0-1.202,0.666-1.813,1.479s-1.355,1.479-1.647,1.479c-0.506,0-1.207,0.501-3.128,2.222
	c-0.452,0.406-0.965,0.738-1.145,0.738c-0.175,0-1.137,0.8-2.137,1.776c-0.998,0.975-2.083,1.773-2.417,1.773
	c-0.332,0-1.216,0.666-1.967,1.48c-0.756,0.813-1.577,1.479-1.829,1.479c-0.254,0-1.05,0.634-1.763,1.41
	c-0.721,0.777-1.879,1.593-2.58,1.813c-0.705,0.222-1.275,0.651-1.275,0.955c0,0.305-0.4,0.554-0.888,0.554
	c-0.49,0-0.888-0.287-0.888-0.639c0-0.354-0.733-1.406-1.628-2.352c-2.37-2.492-3.104-3.414-3.136-3.943
	c-0.017-0.26-0.813-1.123-1.773-1.92c-0.959-0.799-1.753-1.93-1.753-2.517c0-0.585-0.249-1.063-0.548-1.063
	c-0.711,0-4.188-3.479-4.188-4.188c0-0.301-1.063-1.612-2.367-2.914c-1.301-1.303-2.366-2.646-2.366-2.984
	c0-0.702-2.88-3.522-3.596-3.522c-0.254,0-0.651-0.601-0.883-1.334c-0.232-0.731-1.313-2.177-2.409-3.215
	c-1.093-1.034-1.985-2.147-1.985-2.468c0-0.741-3.461-4.229-4.188-4.229c-0.302,0-0.546-0.439-0.546-0.978
	c0-0.539-0.938-1.883-2.072-2.987c-1.135-1.106-2.068-2.267-2.068-2.577c0-0.312-1.063-1.628-2.364-2.929
	c-1.304-1.306-2.369-2.767-2.369-3.255c0-0.489-0.244-0.891-0.545-0.891c-0.735,0-4.189-3.488-4.189-4.228
	c0-0.323-0.932-1.467-2.066-2.542c-1.145-1.073-2.07-2.233-2.07-2.574c0-0.347-1.064-1.701-2.366-3.015
	c-1.302-1.314-2.362-2.589-2.362-2.824c0-0.237-1.064-1.428-2.367-2.642c-1.305-1.215-2.363-2.457-2.363-2.764
	c0-0.304-0.938-1.546-2.071-2.753c-1.133-1.207-2.069-2.558-2.069-3c0-0.445-0.521-0.973-1.152-1.172
	c-0.636-0.2-1.315-0.885-1.521-1.518c-0.2-0.639-0.616-1.156-0.92-1.156c-0.305,0-0.552-0.307-0.552-0.683
	c0-0.374-1.029-1.64-2.289-2.813c-1.254-1.17-2.466-2.714-2.693-3.431c-0.226-0.716-0.911-1.459-1.526-1.656
	c-0.619-0.194-1.289-0.875-1.489-1.508c-0.201-0.639-0.613-1.154-0.917-1.154c-0.308,0-0.551-0.318-0.551-0.706
	c0-0.39-1.065-1.699-2.368-2.913c-1.304-1.214-2.363-2.474-2.363-2.8c0-0.325-0.799-1.395-1.774-2.367
	c-0.977-0.978-1.775-1.951-1.775-2.163c0-0.211-0.731-1.155-1.628-2.099c-2.229-2.344-3.104-3.417-3.104-3.798
	c0-0.175-1.028-1.319-2.283-2.539c-1.254-1.22-2.464-2.806-2.69-3.521c-0.229-0.716-0.921-1.464-1.536-1.657
	c-0.618-0.197-1.29-0.875-1.489-1.513c-0.203-0.633-0.612-1.153-0.918-1.153c-0.305,0-0.551-0.303-0.551-0.678
	c0-0.372-0.801-1.438-1.776-2.372c-0.978-0.935-1.773-1.976-1.773-2.312c0-0.695-2.88-3.52-3.595-3.52
	c-0.255,0-0.651-0.588-0.878-1.308c-0.229-0.724-1.113-2.046-1.965-2.944c-2.159-2.271-3.028-3.341-3.028-3.715
	c0-0.18-1.063-1.39-2.363-2.688c-1.3-1.304-2.366-2.521-2.366-2.711c0-0.187-0.732-1.109-1.628-2.052
	c-2.338-2.454-3.109-3.419-3.109-3.88c0-0.222-0.797-1.167-1.772-2.103c-0.974-0.933-1.771-1.973-1.771-2.312
	c0-0.695-2.886-3.518-3.599-3.518c-0.257,0-0.654-0.591-0.88-1.31c-0.227-0.717-1.444-2.327-2.703-3.571
	c-1.255-1.247-2.29-2.521-2.29-2.836c0-0.313-1.06-1.632-2.362-2.937c-1.301-1.304-2.366-2.521-2.366-2.71
	c0-0.19-0.801-1.14-1.771-2.115c-0.978-0.977-1.774-2.155-1.774-2.617c0-0.588-0.715-0.842-2.368-0.842h-2.361v88.784v88.784
	l-30.041-0.021C495.297,821.122,490.323,820.983,489.702,820.277L489.702,820.277z M556.171,594.079
	c0.793-0.857,1.452-1.772,1.452-2.029c0-0.255,0.589-0.651,1.309-0.88c0.717-0.229,3.131-2.241,5.362-4.479
	c2.234-2.235,4.307-4.066,4.61-4.066c0.308,0,2.532-1.998,4.941-4.438c2.41-2.44,4.615-4.438,4.895-4.438
	c0.284,0,0.967-0.466,1.509-1.034c0.549-0.57,1.302-1.34,1.684-1.707c0.378-0.368,1.454-1.436,2.376-2.365
	c2.112-2.125,3.36-3.18,3.765-3.18c0.176,0,2.153-1.86,4.39-4.143c2.236-2.28,4.436-4.155,4.88-4.169
	c0.454-0.017,1.354-0.706,2.002-1.536c0.654-0.829,1.53-1.813,1.946-2.192c2.806-2.528,4.269-4.104,4.269-4.576
	c0-0.302,0.404-0.549,0.901-0.549c0.492,0,2.771-1.862,5.063-4.145c2.289-2.28,4.403-4.144,4.698-4.144
	c1.086,0,5.27-4.779,4.937-5.645c-0.183-0.478-0.545-0.867-0.796-0.867c-0.255,0-0.648-0.716-0.862-1.594
	c-0.433-1.713-2.395-3.734-3.627-3.734c-0.416,0-0.928-0.531-1.136-1.184c-0.207-0.651-0.896-1.184-1.543-1.184
	c-0.638,0-1.306-0.375-1.478-0.833c-0.18-0.457-0.969-0.998-1.76-1.195c-0.786-0.2-1.436-0.621-1.436-0.94s-0.4-0.582-0.89-0.582
	c-0.487,0-0.889-0.262-0.889-0.581s-0.646-0.743-1.438-0.94c-0.788-0.201-1.579-0.739-1.758-1.196
	c-0.175-0.459-0.848-0.833-1.479-0.833c-0.646,0-1.335-0.522-1.537-1.164c-0.23-0.729-1.11-1.304-2.36-1.536
	c-1.101-0.205-2.147-0.75-2.316-1.205c-0.176-0.457-0.729-0.831-1.228-0.831c-0.494,0-0.906-0.246-0.906-0.551
	s-0.6-0.741-1.334-0.975c-0.732-0.229-1.729-0.866-2.219-1.412c-0.489-0.544-1.354-1.163-1.926-1.375
	c-0.568-0.212-1.034-0.659-1.034-0.995c0-0.338-0.548-0.607-1.202-0.607c-0.661,0-1.357-0.4-1.551-0.892
	c-0.181-0.488-0.71-0.887-1.158-0.887c-0.454,0-0.824-0.269-0.824-0.593s-0.545-0.594-1.202-0.594c-0.661,0-1.35-0.376-1.525-0.833
	c-0.174-0.458-0.965-0.998-1.754-1.194c-0.791-0.2-1.438-0.622-1.438-0.943c0-0.319-0.397-0.58-0.888-0.58
	c-0.485,0-0.887-0.261-0.887-0.58c0-0.316-0.646-0.744-1.438-0.942c-0.79-0.195-1.581-0.734-1.758-1.193
	c-0.178-0.461-0.832-0.837-1.455-0.837c-0.627,0-1.291-0.399-1.479-0.887c-0.186-0.487-0.688-0.888-1.115-0.888
	c-0.428,0-1.154-0.524-1.613-1.163c-0.462-0.639-1.584-1.324-2.5-1.523c-0.912-0.2-1.658-0.593-1.658-0.871
	c0-0.277-0.602-0.693-1.332-0.925c-0.734-0.229-1.798-0.955-2.36-1.607c-0.686-0.787-2.036-1.281-3.996-1.471l-2.962-0.284v52.78
	c0,41.38,0.16,52.961,0.744,53.618C552.99,596.056,554.573,595.807,556.171,594.079L556.171,594.079z"/>
</svg>
