<?xml version="1.0" encoding="utf-8"?>
<!-- Generator: Adobe Illustrator 16.0.3, SVG Export Plug-In . SVG Version: 6.00 Build 0)  -->
<!DOCTYPE svg PUBLIC "-//W3C//DTD SVG 1.1//EN" "http://www.w3.org/Graphics/SVG/1.1/DTD/svg11.dtd">
<svg version="1.1"
	 id="svg4460" xmlns:dc="http://purl.org/dc/elements/1.1/" xmlns:cc="http://creativecommons.org/ns#" xmlns:rdf="http://www.w3.org/1999/02/22-rdf-syntax-ns#" xmlns:svg="http://www.w3.org/2000/svg" xmlns:sodipodi="http://sodipodi.sourceforge.net/DTD/sodipodi-0.dtd" xmlns:inkscape="http://www.inkscape.org/namespaces/inkscape" inkscape:version="0.48.2 r9819" sodipodi:docname="theatre-24.svg"
	 xmlns="http://www.w3.org/2000/svg" xmlns:xlink="http://www.w3.org/1999/xlink" x="0px" y="0px" width="32px" height="32px"
	 viewBox="-3.5 -3.5 32 32" enable-background="new -3.5 -3.5 32 32" xml:space="preserve">
<circle fill="#F3B633" cx="12.5" cy="12.5" r="14"/>
<sodipodi:namedview  id="base" pagecolor="#ffffff" bordercolor="#666666" borderopacity="1.0" inkscape:zoom="11.313708" inkscape:cx="15.622727" inkscape:cy="6.9146856" showgrid="true" showguides="true" inkscape:guide-bbox="true" inkscape:pageopacity="0.0" inkscape:document-units="px" inkscape:pageshadow="2" inkscape:window-width="1220" inkscape:current-layer="layer1" inkscape:window-y="20" inkscape:window-height="833" inkscape:window-maximized="0" inkscape:window-x="56">
	<inkscape:grid  type="xygrid" empspacing="5" visible="true" enabled="true" id="grid4468" snapvisiblegridlinesonly="true">
		</inkscape:grid>
	<sodipodi:guide  orientation="1,0" position="0,20" id="guide4470"></sodipodi:guide>
	<sodipodi:guide  orientation="0,1" position="4,24" id="guide4472"></sodipodi:guide>
	<sodipodi:guide  orientation="1,0" position="24,13" id="guide4474"></sodipodi:guide>
	<sodipodi:guide  orientation="0,1" position="15,0" id="guide4476"></sodipodi:guide>
	<sodipodi:guide  orientation="1,0" position="23,20" id="guide4478"></sodipodi:guide>
	<sodipodi:guide  orientation="0,1" position="20,23" id="guide4480"></sodipodi:guide>
	<sodipodi:guide  orientation="1,0" position="2,5" id="guide4482"></sodipodi:guide>
	<sodipodi:guide  orientation="0,1" position="7,2" id="guide4484"></sodipodi:guide>
	<sodipodi:guide  orientation="1,0" position="13,16" id="guide4486"></sodipodi:guide>
	<sodipodi:guide  orientation="0,1" position="16,13" id="guide4490"></sodipodi:guide>
</sodipodi:namedview>
<rect id="rect6677" fill="none" width="24" height="24"/>
<path fill="#444444" d="M12.5-3.5c-8.836,0-16,7.164-16,16c0,8.837,7.164,16,16,16c8.837,0,16-7.163,16-16
	C28.5,3.664,21.337-3.5,12.5-3.5z M12.5,26.5c-7.732,0-14-6.268-14-14c0-7.732,6.268-14,14-14c7.732,0,14,6.268,14,14
	C26.5,20.232,20.232,26.5,12.5,26.5z"/>
<path fill="#444444" d="M8.181,18.902l-2.101-2.1c-0.002,0.004-0.707-0.709-0.707-0.707c-0.037,0.037-1.546,3.83-2.122,4.949
	l0.707,0.707l4.95-2.121L8.181,18.902z"/>
<path fill="#444444" d="M18.1,3.367c0.836-0.782,1.662-1.08,2.122-0.707l2.121,2.121c0.386,0.375,0.026,1.325-0.707,2.122
	L18.1,3.367z"/>
<rect x="11.09" y="2.292" transform="matrix(0.7071 0.7071 -0.7071 0.7071 11.172 -5.388)" fill="#444444" width="2" height="17"/>
<rect x="13.211" y="4.413" transform="matrix(0.7071 0.7071 -0.7071 0.7071 13.293 -6.2666)" fill="#444444" width="2" height="17"/>
</svg>
