<?xml version="1.0" encoding="utf-8"?>
<!-- Generator: Adobe Illustrator 16.0.3, SVG Export Plug-In . SVG Version: 6.00 Build 0)  -->
<!DOCTYPE svg PUBLIC "-//W3C//DTD SVG 1.1//EN" "http://www.w3.org/Graphics/SVG/1.1/DTD/svg11.dtd">
<svg version="1.1"
	 id="svg4460" xmlns:dc="http://purl.org/dc/elements/1.1/" xmlns:cc="http://creativecommons.org/ns#" xmlns:rdf="http://www.w3.org/1999/02/22-rdf-syntax-ns#" xmlns:svg="http://www.w3.org/2000/svg" xmlns:sodipodi="http://sodipodi.sourceforge.net/DTD/sodipodi-0.dtd" xmlns:inkscape="http://www.inkscape.org/namespaces/inkscape" inkscape:version="0.48.2 r9819" sodipodi:docname="theatre-24.svg"
	 xmlns="http://www.w3.org/2000/svg" xmlns:xlink="http://www.w3.org/1999/xlink" x="0px" y="0px" width="32px" height="32px"
	 viewBox="-3.5 -3.5 32 32" enable-background="new -3.5 -3.5 32 32" xml:space="preserve">
<circle fill="#F3B633" cx="12.5" cy="12.5" r="14"/>
<sodipodi:namedview  id="base" pagecolor="#ffffff" bordercolor="#666666" borderopacity="1.0" inkscape:zoom="11.313708" inkscape:cx="15.622727" inkscape:cy="6.9146856" showgrid="true" showguides="true" inkscape:guide-bbox="true" inkscape:pageopacity="0.0" inkscape:document-units="px" inkscape:pageshadow="2" inkscape:window-width="1220" inkscape:current-layer="layer1" inkscape:window-y="20" inkscape:window-height="833" inkscape:window-maximized="0" inkscape:window-x="56">
	<inkscape:grid  type="xygrid" empspacing="5" visible="true" enabled="true" id="grid4468" snapvisiblegridlinesonly="true">
		</inkscape:grid>
	<sodipodi:guide  orientation="1,0" position="0,20" id="guide4470"></sodipodi:guide>
	<sodipodi:guide  orientation="0,1" position="4,24" id="guide4472"></sodipodi:guide>
	<sodipodi:guide  orientation="1,0" position="24,13" id="guide4474"></sodipodi:guide>
	<sodipodi:guide  orientation="0,1" position="15,0" id="guide4476"></sodipodi:guide>
	<sodipodi:guide  orientation="1,0" position="23,20" id="guide4478"></sodipodi:guide>
	<sodipodi:guide  orientation="0,1" position="20,23" id="guide4480"></sodipodi:guide>
	<sodipodi:guide  orientation="1,0" position="2,5" id="guide4482"></sodipodi:guide>
	<sodipodi:guide  orientation="0,1" position="7,2" id="guide4484"></sodipodi:guide>
	<sodipodi:guide  orientation="1,0" position="13,16" id="guide4486"></sodipodi:guide>
	<sodipodi:guide  orientation="0,1" position="16,13" id="guide4490"></sodipodi:guide>
</sodipodi:namedview>
<rect id="rect6677" fill="none" width="24" height="24"/>
<path fill="#444444" d="M12.5-3.5c-8.836,0-16,7.164-16,16c0,8.837,7.164,16,16,16c8.837,0,16-7.163,16-16
	C28.5,3.664,21.337-3.5,12.5-3.5z M12.5,26.5c-7.732,0-14-6.268-14-14c0-7.732,6.268-14,14-14c7.732,0,14,6.268,14,14
	C26.5,20.232,20.232,26.5,12.5,26.5z"/>
<rect x="12" y="0.5" fill="#444444" width="2" height="4"/>
<rect x="7.5" y="13.5" fill="#444444" width="11" height="1"/>
<polygon fill="#444444" points="15.5,19.5 17.5,19.5 17.5,23.5 "/>
<polygon fill="#444444" points="17.5,19.5 15.5,19.5 12.5,7.5 14.5,7.5 "/>
<polygon fill="#444444" points="10.5,19.5 8.5,19.5 8.5,23.5 "/>
<polygon fill="#444444" points="8.5,19.5 10.5,19.5 13.5,7.5 11.5,7.5 "/>
<path fill="#444444" d="M13,3.5c-1.381,0-2.5,1.119-2.5,2.5s1.119,2.5,2.5,2.5s2.5-1.119,2.5-2.5S14.381,3.5,13,3.5z M13,7.5
	c-0.828,0-1.5-0.672-1.5-1.5s0.672-1.5,1.5-1.5s1.5,0.672,1.5,1.5S13.828,7.5,13,7.5z"/>
</svg>
