<?xml version="1.0" encoding="utf-8"?>
<!-- Generator: Adobe Illustrator 16.0.3, SVG Export Plug-In . SVG Version: 6.00 Build 0)  -->
<!DOCTYPE svg PUBLIC "-//W3C//DTD SVG 1.1//EN" "http://www.w3.org/Graphics/SVG/1.1/DTD/svg11.dtd">
<svg version="1.1"
	 id="svg4460" xmlns:dc="http://purl.org/dc/elements/1.1/" xmlns:cc="http://creativecommons.org/ns#" xmlns:rdf="http://www.w3.org/1999/02/22-rdf-syntax-ns#" xmlns:svg="http://www.w3.org/2000/svg" xmlns:sodipodi="http://sodipodi.sourceforge.net/DTD/sodipodi-0.dtd" xmlns:inkscape="http://www.inkscape.org/namespaces/inkscape" inkscape:version="0.48.2 r9819" sodipodi:docname="theatre-24.svg"
	 xmlns="http://www.w3.org/2000/svg" xmlns:xlink="http://www.w3.org/1999/xlink" x="0px" y="0px" width="32px" height="32px"
	 viewBox="-3.5 -3.5 32 32" enable-background="new -3.5 -3.5 32 32" xml:space="preserve">
<circle fill="#C52170" cx="12.5" cy="12.5" r="14"/>
<sodipodi:namedview  id="base" pagecolor="#ffffff" bordercolor="#666666" borderopacity="1.0" inkscape:zoom="11.313708" inkscape:cx="15.622727" inkscape:cy="6.9146856" showgrid="true" showguides="true" inkscape:guide-bbox="true" inkscape:pageopacity="0.0" inkscape:document-units="px" inkscape:pageshadow="2" inkscape:window-width="1220" inkscape:current-layer="layer1" inkscape:window-y="20" inkscape:window-height="833" inkscape:window-maximized="0" inkscape:window-x="56">
	<inkscape:grid  type="xygrid" empspacing="5" visible="true" enabled="true" id="grid4468" snapvisiblegridlinesonly="true">
		</inkscape:grid>
	<sodipodi:guide  orientation="1,0" position="0,20" id="guide4470"></sodipodi:guide>
	<sodipodi:guide  orientation="0,1" position="4,24" id="guide4472"></sodipodi:guide>
	<sodipodi:guide  orientation="1,0" position="24,13" id="guide4474"></sodipodi:guide>
	<sodipodi:guide  orientation="0,1" position="15,0" id="guide4476"></sodipodi:guide>
	<sodipodi:guide  orientation="1,0" position="23,20" id="guide4478"></sodipodi:guide>
	<sodipodi:guide  orientation="0,1" position="20,23" id="guide4480"></sodipodi:guide>
	<sodipodi:guide  orientation="1,0" position="2,5" id="guide4482"></sodipodi:guide>
	<sodipodi:guide  orientation="0,1" position="7,2" id="guide4484"></sodipodi:guide>
	<sodipodi:guide  orientation="1,0" position="13,16" id="guide4486"></sodipodi:guide>
	<sodipodi:guide  orientation="0,1" position="16,13" id="guide4490"></sodipodi:guide>
</sodipodi:namedview>
<g id="g6548">
	<path id="path6511" sodipodi:nodetypes="ssssssssssssssssssssssssssssssss" inkscape:connector-curvature="0" fill="#FFFFFF" d="
		M11,4c-5,0-8,4-8,6s1,3.5,3,3.5s3,0.5,3,2c0,2,1.5,3.5,3.5,3.5c6.5,0,9.5-3.5,9.5-7C22,6,17,4,11,4z M9.75,6
		C10.44,6,11,6.56,11,7.25c0,0.689-0.56,1.25-1.25,1.25S8.5,7.939,8.5,7.25C8.5,6.56,9.06,6,9.75,6z M13.75,6
		C14.439,6,15,6.56,15,7.25c0,0.689-0.561,1.25-1.25,1.25S12.5,7.939,12.5,7.25C12.5,6.56,13.061,6,13.75,6z M17.75,8
		C18.439,8,19,8.56,19,9.25c0,0.689-0.561,1.25-1.25,1.25S16.5,9.939,16.5,9.25C16.5,8.56,17.061,8,17.75,8z M6.25,9
		C6.94,9,7.5,9.56,7.5,10.25c0,0.689-0.56,1.25-1.25,1.25S5,10.939,5,10.25C5,9.56,5.56,9,6.25,9z M12.5,14
		c0.828,0,1.5,0.672,1.5,1.5S13.328,17,12.5,17c-0.829,0-1.5-0.672-1.5-1.5S11.671,14,12.5,14z"/>
</g>
<rect id="rect6677" fill="none" width="24" height="24"/>
<path fill="#404040" d="M12.5-3.5c-8.836,0-16,7.164-16,16c0,8.837,7.164,16,16,16c8.837,0,16-7.163,16-16
	C28.5,3.664,21.337-3.5,12.5-3.5z M12.5,26.5c-7.732,0-14-6.268-14-14c0-7.732,6.268-14,14-14c7.732,0,14,6.268,14,14
	C26.5,20.232,20.232,26.5,12.5,26.5z"/>
</svg>
